<?xml version="1.0" encoding="UTF-8"?>
<!DOCTYPE svg PUBLIC "-//W3C//DTD SVG 1.1//EN" "http://www.w3.org/Graphics/SVG/1.1/DTD/svg11.dtd">
<!-- Creator: CorelDRAW -->
<svg xmlns="http://www.w3.org/2000/svg" xml:space="preserve" width="4000px" height="5500px" version="1.1" style="shape-rendering:geometricPrecision; text-rendering:geometricPrecision; image-rendering:optimizeQuality; fill-rule:evenodd; clip-rule:evenodd"
viewBox="0 0 693.07 952.98"
 xmlns:xlink="http://www.w3.org/1999/xlink"
 xmlns:xodm="http://www.corel.com/coreldraw/odm/2003">
 <defs>
  <style type="text/css">
   <![CDATA[
    .fil10 {fill:#524E4E;fill-rule:nonzero}
    .fil6 {fill:#895449;fill-rule:nonzero}
    .fil8 {fill:#BF715D;fill-rule:nonzero}
    .fil1 {fill:#BF99A7;fill-rule:nonzero}
    .fil3 {fill:#CC9FAF;fill-rule:nonzero}
    .fil0 {fill:#D5E6F6;fill-rule:nonzero}
    .fil2 {fill:#D6A7B6;fill-rule:nonzero}
    .fil5 {fill:#D6A7B6;fill-rule:nonzero}
    .fil11 {fill:#E5D8E1;fill-rule:nonzero}
    .fil4 {fill:#EBB5C3;fill-rule:nonzero}
    .fil12 {fill:#F9FFF8;fill-rule:nonzero}
    .fil7 {fill:#FCCEC0;fill-rule:nonzero}
    .fil9 {fill:#FFE1EA;fill-rule:nonzero}
   ]]>
  </style>
 </defs>
 <g id="Layer_x0020_1">
  <metadata id="CorelCorpID_0Corel-Layer"/>
  <g id="_2099202700752">
   <rect class="fil0" width="693.07" height="952.98"/>
   <path class="fil1" d="M249.74 697.49c-73.35,50.42 -160.82,79.72 -249.64,84.92l0 -185.75c10.69,2.63 20.97,5.35 30.27,7.59 36.17,8.63 71.68,20.09 106.09,34.23 19.59,8.06 38.84,16.99 57.64,26.77 19.02,9.89 37.61,20.65 55.64,32.25l0 -0.01z"/>
   <path class="fil1" d="M536.83 636.68c50.6,-15.39 103.35,-23.63 156.23,-24.5l0 203.85c-79.87,-1.42 -159.75,-2.84 -239.61,-4.28 -7.22,-0.14 -14.45,-0.26 -21.69,-0.38 -48.23,-0.86 -96.44,-1.71 -144.65,-2.58 -1.34,-0.02 -1.41,-2.67 -0.68,-6.81 2.58,-14.55 15.09,-47.64 17.5,-50.98 8.94,-12.39 26.59,-18.38 39.58,-25.68 5.17,-2.89 10.33,-5.78 15.51,-8.64 34.4,-19.06 69.28,-37.33 105.36,-53.03 1.68,-0.73 3.36,-1.45 5.06,-2.18 22.02,-9.41 44.49,-17.83 67.41,-24.79l-0.02 0z"/>
   <path class="fil2" d="M693.06 761.79l0 191.19 -692.96 0 0 -207.99c49.26,-20.25 98.51,-40.51 147.78,-60.76 42.17,-17.34 84.11,-34.82 126.39,-51.93 21.2,-8.56 43.03,-16.27 65.78,-16.24 27.77,0.04 54.07,11.63 79.39,22.99 16.67,7.49 33.33,14.95 50.02,22.44 25.12,11.26 50.24,22.53 75.34,33.79 49.42,22.18 98.85,44.35 148.27,66.53l-0.01 -0.02z"/>
   <path class="fil3" d="M693.06 761.79l0 191.19 -197.77 0c-5.58,-41.18 -14.55,-81.81 -31.24,-119.71 -3.2,-7.29 -6.74,-14.48 -10.58,-21.52 -2.32,-4.24 -4.75,-8.43 -7.3,-12.56 -12.19,-19.73 -26.93,-37.9 -44.02,-53.16 -13.04,-11.66 -27.45,-21.64 -43.11,-29.35 -4.75,-2.34 -9.62,-4.45 -14.59,-6.36 -23.7,-9.04 -51.75,-14.57 -65.24,-36.05 -7.78,-12.37 -8.63,-27.67 -4.96,-41.99 21.21,-8.56 43.04,-16.27 65.78,-16.23 27.77,0.03 54.07,11.62 79.4,22.98 16.66,7.49 33.33,14.95 50.01,22.44 25.12,11.26 50.24,22.54 75.34,33.8 49.43,22.17 98.85,44.35 148.28,66.52l0 0z"/>
   <path class="fil4" d="M692.95 741.26l0 211.72 -692.95 0 0 -39.42c97.41,-31.84 193.06,-69.1 286.33,-111.58 38.99,-17.75 77.57,-36.41 115.7,-55.95 8.39,-4.3 16.74,-8.63 25.07,-13.01 28.53,-15.01 58,-30.84 89.41,-36.11 6.27,-1.05 12.63,-1.68 19.06,-1.8 3.04,-0.05 6.08,0 9.09,0.17 51.26,2.78 98.21,35.66 148.27,45.98l0.02 0z"/>
   <path class="fil5" d="M252.08 876.87c-0.16,0.12 -0.4,0.49 -0.68,0.99 -0.81,0.42 -2.15,1.21 -3.65,2.17 -0.02,-0.06 -0.04,-0.09 -0.05,-0.14 -0.99,-2.01 -4.2,0.26 -4.79,0.88 -0.05,0.07 -0.13,0.14 -0.24,0.23 -0.24,-0.44 -0.71,-0.92 -1.56,-1.23 -1.95,-0.71 -6.82,2.46 -10.18,4.08 -2.52,1.22 -5.81,3.56 -7.31,4.65 -0.11,-0.18 -0.16,-0.28 -0.16,-0.28 0,0 -0.8,0.45 -2.03,1.14 -1.61,-0.12 -5,0.18 -7.07,1.48 -4.81,3.06 -6.41,6.56 -6.42,6.6 -0.42,0.81 -0.23,2.13 0.29,3.51 -1.11,-0.45 -2.65,-0.19 -3.62,0.23 -1.33,0.55 -2.44,1.68 -2.98,3.03 -0.4,0.99 -0.47,2.18 0.14,3.05 0.54,0.78 1.39,1.97 2.32,2.01 0.94,0.03 2.2,-0.37 3.1,-0.64 0.76,-0.23 1.32,-1.13 1.98,-1.56 0.66,-0.43 1.23,-1.06 1.42,-1.82 0,-0.05 0.02,-0.09 0.03,-0.14 0.85,1.06 1.74,1.8 2.43,1.91 0,0 3.5,1.47 5.63,0.71 2.15,-0.75 3.81,-1.44 4.81,-1.35 1.01,0.08 6.05,1.88 6.64,1.4 0.07,-0.05 0.16,-0.12 0.24,-0.21 0.31,0.4 1.06,1.4 1.34,1.56 0.34,0.17 0.57,-0.12 0.71,-0.09 0.12,0.04 1.31,0.18 1.5,-0.07 0.19,-0.24 0.14,-0.31 0.21,-0.41 0.09,-0.11 0.19,-0.07 0.35,-0.26 0.15,-0.19 0.15,-0.37 0.22,-0.59 0.07,-0.23 0.21,-0.35 0.23,-0.45 0.03,-0.09 0.21,-0.28 0,-0.5 -0.21,-0.23 -0.9,-0.7 -1.11,-0.83 -0.21,-0.14 -1.33,-0.56 -1.66,-0.54 0,0 0,0 0,0 0.08,-0.18 0.14,-0.31 0.1,-0.4 -0.17,-0.42 -4.87,-1.92 -6.46,-2.25 -0.68,-0.14 -1.7,-0.11 -2.67,0 3.22,-1.68 5.98,-3.26 6.12,-3.42 0.03,-0.03 0,-0.19 -0.11,-0.43 3.26,-2.08 13.32,-9.25 14.76,-10.31 0.9,-0.67 3.5,-2.79 5.75,-4.67 0.51,0.29 1.23,0.45 2.19,0.05 1.99,-0.85 2.54,-2.95 2.56,-4.11 0.02,-1.33 -1.7,-3.5 -2.37,-2.98l0.05 0zm-15.32 10.35c0.3,-0.23 0.84,-0.68 1.48,-1.2 0.03,0.05 0.08,0.12 0.12,0.17 -1.21,0.82 -1.89,1.25 -1.6,1.04l0 -0.01z"/>
   <path class="fil2" d="M693.06 741.26l0 211.72 -428.63 0c55.78,-47.21 111.57,-94.4 167.33,-141.61 3.74,-3.17 7.49,-6.32 11.23,-9.49 1.05,-0.89 2.11,-1.79 3.17,-2.69 20.4,-17.32 40.9,-35.55 52.73,-59.47 6.79,-13.7 10.85,-29.35 17.74,-42.81 6.27,-1.05 12.63,-1.68 19.06,-1.8 3.05,-0.05 6.08,0 9.09,0.17 51.26,2.78 98.21,35.66 148.28,45.98z"/>
   <path class="fil6" d="M254.92 877.06c0.16,0 2.1,0.11 2.29,2.29 0.19,2.18 -1.41,3.64 -2.41,4.19 -1.16,0.64 -3.49,0.76 -3.18,-1.32 0.15,-0.85 3.3,-5.16 3.3,-5.16z"/>
   <path class="fil7" d="M267.69 849.21c0.08,0 1.89,0.26 2.21,0.48 0.33,0.23 0.18,0.57 0.25,0.66 0.07,0.09 0.78,1.07 0.64,1.37 -0.14,0.29 -0.21,0.26 -0.26,0.38 -0.05,0.12 0.03,0.21 -0.07,0.43 -0.1,0.23 -0.24,0.31 -0.42,0.49 -0.17,0.17 -0.2,0.34 -0.27,0.41 -0.07,0.07 -0.16,0.32 -0.44,0.25 -0.27,-0.07 -1.02,-0.47 -1.24,-0.59 -0.23,-0.12 -1.13,-0.92 -1.27,-1.22 -0.14,-0.29 0.87,-2.68 0.87,-2.68l0 0.02z"/>
   <path class="fil8" d="M248.02 851.27c0,0 -0.95,5.89 -0.79,9.61 0.15,3.73 -0.35,9.53 1.19,10.92 1.55,1.4 2.9,0.55 2.9,0.55 0,0 1.4,-6.37 1.64,-7.88 0.24,-1.49 -1.89,17.29 -1.25,18.19 0.65,0.9 2.98,0.5 3.33,-0.49 0.35,-0.98 2.2,-10.01 2.5,-12 0.29,-1.99 2.23,-17.26 2.2,-18.88 -0.04,-1.63 -11.72,0 -11.72,0l0 -0.02z"/>
   <path class="fil6" d="M252.44 866.32c0,0 -1.35,-0.07 -1.63,1.15 -0.27,1.21 -0.38,4.62 -0.64,5.44 -0.27,0.81 -0.76,4.71 1.48,4.64 2.23,-0.07 2.01,-3.74 1.94,-4.64 -0.07,-0.9 -0.21,-1.74 0.03,-2.45 0.24,-0.71 1.3,-4.07 -1.18,-4.15l0 0.01z"/>
   <path class="fil9" d="M263.6 843.73c-0.56,-0.85 -0.73,-2.63 -1.08,-4.88 -0.34,-2.24 -3.29,-4.65 -3.29,-4.65l0 0c-1.31,-1.78 -9.32,-2.23 -10.86,0 -0.02,0.02 -2.35,3.07 -2.79,8.77 -0.19,2.43 1.16,5.56 2.03,6.93 -0.04,1.42 -0.05,2.34 -0.05,2.34 0,0 12.38,0.34 12.56,-0.09 0.07,-0.19 0.15,-3.36 0.12,-7 0.36,0.92 0.79,1.84 1.25,2.36 1.03,1.25 4.59,4.68 5.04,4.64 0.45,-0.05 1.3,-2.49 1.43,-3.24 0.14,-0.74 -3.81,-4.33 -4.36,-5.18l0 0z"/>
   <path class="fil10" d="M250.1 829.53c-0.13,-1.44 0.33,-2.95 1.27,-4.06 0.69,-0.81 1.7,-1.43 2.75,-1.31 0.94,0.1 2.39,0.29 2.88,1.09 0.48,0.79 0.71,2.11 0.9,3.05 0.16,0.78 -0.38,1.69 -0.43,2.47 -0.06,0.78 -0.35,1.6 -0.94,2.12 -1.13,1.02 -3.07,0.85 -4.36,0.28 -1.25,-0.56 -1.93,-2.4 -2.05,-3.64l-0.02 0z"/>
   <path class="fil6" d="M252.96 865.02c-0.12,-1.68 -0.07,-3.43 0,-5.11 0.11,-1.68 0.23,-3.43 0.52,-5.07 0.12,1.68 0.07,3.43 0,5.11 -0.1,1.68 -0.22,3.43 -0.52,5.07l0 0z"/>
   <path class="fil11" d="M247.61 850.09c0,0 -0.04,0 -0.04,0 -0.08,-0.02 -0.15,-0.12 -0.12,-0.21 0.07,-0.26 0.3,-3.12 0.44,-4.97l0.5 -6.32c0,-0.11 0.09,-0.18 0.19,-0.16 0.1,0 0.17,0.09 0.16,0.19l-0.51 6.33c-0.03,0.46 -0.34,4.66 -0.45,5.02 -0.02,0.09 -0.08,0.14 -0.17,0.14l0 -0.02z"/>
   <path class="fil11" d="M260.24 845.34c-0.02,0 -0.04,0 -0.07,0 -0.09,-0.03 -0.14,-0.12 -0.11,-0.2 0.07,-0.37 0.07,-5.2 -0.46,-6.02 -0.05,-0.08 -0.04,-0.19 0.05,-0.24 0.09,-0.05 0.19,-0.03 0.24,0.05 0.64,0.96 0.61,6.08 0.52,6.31 -0.03,0.07 -0.09,0.1 -0.15,0.1l-0.02 0z"/>
   <circle class="fil12" cx="553.5" cy="280.22" r="38.03"/>
  </g>
 </g>
</svg>
