<?xml version="1.0" encoding="UTF-8" standalone="no"?><!DOCTYPE svg PUBLIC "-//W3C//DTD SVG 1.1//EN" "http://www.w3.org/Graphics/SVG/1.1/DTD/svg11.dtd"><svg width="100%" height="100%" viewBox="0 0 3534 5267" version="1.1" xmlns="http://www.w3.org/2000/svg" xmlns:xlink="http://www.w3.org/1999/xlink" xml:space="preserve" xmlns:serif="http://www.serif.com/" style="fill-rule:evenodd;clip-rule:evenodd;stroke-linejoin:round;stroke-miterlimit:2;"><rect id="ArtBoard1" x="0" y="0" width="3533.333" height="5266.667" style="fill:none;"/><clipPath id="_clip1"><rect id="ArtBoard11" serif:id="ArtBoard1" x="0" y="0" width="3533.333" height="5266.667"/></clipPath><g clip-path="url(#_clip1)"><g id="Mirror"><rect x="0" y="4166.39" width="3533.333" height="1100.277" style="fill:url(#_Linear2);"/><path d="M2081.243,4372.362c-10.13,2.643 47.917,51.042 86.458,53.125c38.542,2.083 201.042,69.792 227.083,78.125c26.042,8.333 100,1.042 114.583,-4.167c14.583,-5.208 251.042,-104.167 295.833,-109.375c44.792,-5.208 -183.333,4.167 -217.708,-8.333c-34.375,-12.5 -326.042,-121.875 -385.417,-115.625c-59.375,6.25 -96.875,100 -120.833,106.25Z" style="fill:#eeeff4;"/><path d="M1275.757,4239.584c27.5,4.167 33.333,19.167 46.667,16.667c13.333,-2.5 14.167,-14.167 33.333,-18.333c19.167,-4.167 50,-3.333 59.167,-10.833c9.167,-7.5 25,-43.333 32.5,-45.833c7.5,-2.5 15.833,-10 23.333,-4.167c7.5,5.833 20.833,35 31.667,35.833c10.833,0.833 44.167,-9.167 55.833,-6.667c11.667,2.5 68.333,73.333 77.5,75c9.167,1.667 70.833,-16.667 80,-26.667c9.167,-10 20,-21.667 20,-21.667c0,0 19.167,18.333 26.667,20.833c7.5,2.5 46.667,17.5 64.167,49.167c27.5,-13.333 94.167,-29.167 102.5,-40.833c8.333,-11.667 15.833,-43.333 30,-45.833c14.167,-2.5 30,-2.5 42.5,-4.167c12.5,-1.667 15.833,-87.5 15.833,-87.5l-662.5,-63.333c0,0 -106.667,174.167 -79.167,178.333Z" style="fill:#d7b6d0;"/><path d="M1340.158,4111.058c57.817,-21.385 103.472,-19.444 125.694,-19.444c22.222,0 184.028,40.278 193.75,52.778c9.722,12.5 5.556,15.278 -1.389,25c-6.944,9.722 76.389,-13.889 97.222,-12.5c20.833,1.389 209.722,4.167 244.444,12.5c34.722,8.333 173.611,69.444 212.5,81.944c38.889,12.5 166.667,9.722 227.778,18.056c61.111,8.333 259.722,-18.056 295.833,-29.167c36.111,-11.111 90.278,-70.833 112.5,-83.333c22.222,-12.5 58.333,-176.389 63.889,-193.056c5.556,-16.667 -109.722,-290.278 -152.778,-309.722c-43.056,-19.444 -159.722,-48.611 -276.389,-5.556c-116.667,43.056 -443.056,122.222 -612.5,151.389c-169.444,29.167 -630.556,195.833 -673.611,230.556c-43.056,34.722 41.667,118.056 143.056,80.556Z" style="fill:#ebeef4;"/><path d="M1957.727,4070.086c5.833,-3.333 54.167,35 60.833,31.667c6.667,-3.333 -3.333,-15.833 5,-16.667c8.333,-0.833 81.667,31.667 85,69.167c20.833,-5.833 46.667,-10 46.667,-10c0,0 -3.333,49.167 -5,58.333c-1.667,9.167 21.667,-4.167 35.833,-3.333c14.167,0.833 52.5,19.167 66.667,19.167c14.167,0 92.5,-19.167 96.667,-26.667c4.167,-7.5 -2.5,-35.833 30,-27.5c32.5,8.333 65,53.333 81.667,54.167c16.667,0.833 37.5,-3.333 75,-2.5c37.5,0.833 102.5,-18.333 132.5,4.167c30,22.5 30,70.833 22.5,88.333c-7.5,17.5 -13.333,37.5 -21.667,43.333c-8.333,5.833 -22.5,-4.167 -31.667,5.833c-9.167,10 -27.5,38.333 -37.5,40.833c-10,2.5 -30.833,-5.833 -50,1.667c-19.167,7.5 -42.5,28.333 -60,30c-17.5,1.667 -67.5,-17.5 -90,-17.5c-22.5,0 -70,-17.5 -90.833,-21.667c-20.833,-4.167 -45.833,-1.667 -65,-25c-19.167,-23.333 -15.833,-52.5 -35.833,-54.167c-20,-1.667 -64.167,47.5 -94.167,40.833c-30,-6.667 -85,-21.667 -91.667,-35c-6.667,-13.333 -42.5,-144.167 -39.167,-157.5c3.333,-13.333 -0.833,-30 -5.833,-43.333c-5,-13.333 -25.833,-43.333 -20,-46.667Z" style="fill:#9588c0;"/><path d="M2373.144,3847.516c16.667,4.167 28.333,15.833 27.5,24.167c-0.833,8.333 22.5,20.833 22.5,20.833c0,0 8.333,79.167 0.833,81.667c-7.5,2.5 -36.667,-37.5 -36.667,-37.5c0,0 28.333,79.167 33.333,97.5c5,18.333 21.667,80 35,97.5c13.333,17.5 44.167,76.667 47.5,88.333c3.333,11.667 32.5,25.833 32.5,25.833c0,0 89.167,-1.667 98.333,1.667c9.167,3.333 13.333,34.167 25.833,46.667c12.5,12.5 13.333,15.833 38.333,15.833c25,0 96.667,-29.167 104.167,-35.833c7.5,-6.667 50.833,-98.333 68.333,-105.833c17.5,-7.5 82.5,-34.167 88.333,-44.167c5.833,-10 -13.333,-130.833 -74.167,-151.667c-60.833,-20.833 -170.833,-238.333 -173.333,-258.333c-2.5,-20 -108.333,-27.5 -130.833,0c-22.5,27.5 -109.167,82.5 -128.333,87.5c-19.167,5 -75.833,2.5 -82.5,19.167c-6.667,16.667 -13.333,22.5 3.333,26.667Z" style="fill:#5778ae;"/><clipPath id="_clip3"><path d="M2373.144,3847.516c16.667,4.167 28.333,15.833 27.5,24.167c-0.833,8.333 22.5,20.833 22.5,20.833c0,0 8.333,79.167 0.833,81.667c-7.5,2.5 -36.667,-37.5 -36.667,-37.5c0,0 28.333,79.167 33.333,97.5c5,18.333 21.667,80 35,97.5c13.333,17.5 44.167,76.667 47.5,88.333c3.333,11.667 32.5,25.833 32.5,25.833c0,0 89.167,-1.667 98.333,1.667c9.167,3.333 13.333,34.167 25.833,46.667c12.5,12.5 13.333,15.833 38.333,15.833c25,0 96.667,-29.167 104.167,-35.833c7.5,-6.667 50.833,-98.333 68.333,-105.833c17.5,-7.5 82.5,-34.167 88.333,-44.167c5.833,-10 -13.333,-130.833 -74.167,-151.667c-60.833,-20.833 -170.833,-238.333 -173.333,-258.333c-2.5,-20 -108.333,-27.5 -130.833,0c-22.5,27.5 -109.167,82.5 -128.333,87.5c-19.167,5 -75.833,2.5 -82.5,19.167c-6.667,16.667 -13.333,22.5 3.333,26.667Z"/></clipPath><g clip-path="url(#_clip3)"><path d="M2811.135,4138.912c-2.713,-10.258 -30.924,-9.178 -53.167,-1.08c-22.243,8.098 -35.806,22.676 -31.466,25.915c4.34,3.239 51.539,3.239 61.847,1.08c10.308,-2.16 25.498,-15.657 22.786,-25.915Z" style="fill:#e8f5fc;"/></g><path d="M2712.38,3797.933c-17.5,4.167 -49.167,10.833 -52.5,20.833c-3.333,10 49.167,150.833 53.333,166.667c10.833,-24.167 15.833,-51.667 24.167,-49.167c8.333,2.5 87.5,40 95.833,52.5c8.333,12.5 19.167,4.167 31.667,6.667c12.5,2.5 76.667,57.5 94.167,65.833c17.5,8.333 -64.167,-185 -64.167,-185c0,0 -165,-82.5 -182.5,-78.333Z" style="fill:#6d8ec5;"/><path d="M984.255,4321.127c35.417,3.125 71.875,30.208 105.208,26.042c33.333,-4.167 46.875,-41.667 62.5,-43.75c15.625,-2.083 82.292,-1.042 106.25,-19.792c23.958,-18.75 92.708,-187.5 118.75,-201.042c26.042,-13.542 25,-19.792 41.667,-25c16.667,-5.208 16.667,4.167 27.083,0c10.417,-4.167 21.875,-20.833 33.333,-20.833c11.458,0 26.042,7.292 35.417,4.167c9.375,-3.125 12.5,-17.708 26.042,-17.708c13.542,0 75,34.375 88.542,33.333c13.542,-1.042 30.208,-11.458 40.625,-11.458c10.417,0 23.958,1.042 35.417,-3.125c11.458,-4.167 80.208,-73.958 96.875,-70.833c16.667,3.125 108.333,16.667 127.083,12.5c18.75,-4.167 44.792,-31.25 64.583,-37.5c19.792,-6.25 62.5,-8.333 81.25,-18.75c18.75,-10.417 42.708,-25 56.25,-25c13.542,0 39.583,2.083 50,-1.042c10.417,-3.125 29.167,-36.458 44.792,-36.458c15.625,0 48.958,42.708 66.667,39.583c17.708,-3.125 20.833,-21.875 33.333,-21.875c12.5,0 19.792,-0 30.208,-4.167c10.417,-4.167 13.542,-27.083 27.083,-28.125c13.542,-1.042 39.583,-1.042 48.958,-9.375c9.375,-8.333 8.333,-22.917 21.875,-27.083c13.542,-4.167 42.708,8.333 59.375,4.167c16.667,-4.167 31.25,-36.458 56.25,-45.833c25,-9.375 89.583,-36.458 132.292,-50c42.708,-13.542 -4.167,-153.125 -65.625,-155.208c-37.338,-1.266 -552.926,-23.078 -923.838,59.046c-239.605,53.051 -387.274,217.456 -412.62,230.538c-64.583,33.333 -351.042,461.458 -315.625,464.583Z" style="fill:#6487be;"/><path d="M1206.795,4063.345c70.833,-11.111 79.167,-19.444 102.778,-26.389c23.611,-6.944 52.778,-19.444 76.389,-25c23.611,-5.556 31.944,-25 69.444,-31.944c37.5,-6.944 55.556,-23.611 72.222,-44.444c16.667,-20.833 8.333,-33.333 23.611,-37.5c15.278,-4.167 29.167,2.778 48.611,-12.5c19.444,-15.278 125,-227.778 137.5,-223.611c12.5,4.167 22.222,27.778 33.333,34.722c11.111,6.944 55.556,6.944 55.556,6.944c0,0 16.667,41.667 30.556,51.389c13.889,9.722 50,27.778 50,27.778c0,0 9.722,-31.944 27.778,-29.167c18.056,2.778 44.444,62.5 61.111,62.5c16.667,0 75,-61.111 112.5,-52.778c37.5,8.333 48.611,38.889 66.667,40.278c18.056,1.389 122.222,-13.889 145.833,-15.278c23.611,-1.389 72.222,9.722 84.722,8.333c12.5,-1.389 73.611,-63.889 98.611,-94.444c25,-30.556 -315.278,-383.333 -315.278,-383.333l-970.833,368.056c0,0 -81.944,387.5 -11.111,376.389Z" style="fill:#6e68a6;"/><path d="M2597.142,3625.011c32.5,12.5 65,29.167 72.5,42.5c7.5,13.333 33.333,177.5 44.167,193.333c10.833,15.833 70.9,62.872 94.167,95.833c10,14.167 80.833,7.5 92.5,17.5c11.667,10 42.5,69.167 44.167,78.333c1.667,9.167 5.833,65.833 7.5,76.667c1.667,10.833 35,93.333 40,105.833c5,12.5 6.667,56.667 7.5,65c0.833,8.333 41.667,62.5 43.333,74.167c1.667,11.667 12.5,77.5 20,100c7.5,22.5 39.167,99.167 39.167,99.167c0,0 47.5,33.333 53.333,45.833c5.833,12.5 16.667,59.167 28.333,77.5c11.667,18.333 5,76.667 25,87.5c20,10.833 44.167,13.333 51.667,16.667c7.5,3.333 35.833,33.333 35.833,33.333l97.5,-15l16.667,35.833l55.833,-8.333c0,0 20.833,-44.167 29.167,-54.167c8.333,-10 18.333,-104.167 46.667,-113.333c28.333,-9.167 -268.333,-314.167 -268.333,-314.167l-213.333,-411.667l-270,-362.5l-114.167,-132.5l-131.667,10.833c0,0 20,143.333 52.5,155.833Z" style="fill:#c97887;"/><clipPath id="_clip4"><path d="M2597.142,3625.011c32.5,12.5 65,29.167 72.5,42.5c7.5,13.333 33.333,177.5 44.167,193.333c10.833,15.833 70.9,62.872 94.167,95.833c10,14.167 80.833,7.5 92.5,17.5c11.667,10 42.5,69.167 44.167,78.333c1.667,9.167 5.833,65.833 7.5,76.667c1.667,10.833 35,93.333 40,105.833c5,12.5 6.667,56.667 7.5,65c0.833,8.333 41.667,62.5 43.333,74.167c1.667,11.667 12.5,77.5 20,100c7.5,22.5 39.167,99.167 39.167,99.167c0,0 47.5,33.333 53.333,45.833c5.833,12.5 16.667,59.167 28.333,77.5c11.667,18.333 5,76.667 25,87.5c20,10.833 44.167,13.333 51.667,16.667c7.5,3.333 35.833,33.333 35.833,33.333l97.5,-15l16.667,35.833l55.833,-8.333c0,0 20.833,-44.167 29.167,-54.167c8.333,-10 18.333,-104.167 46.667,-113.333c28.333,-9.167 -268.333,-314.167 -268.333,-314.167l-213.333,-411.667l-270,-362.5l-114.167,-132.5l-131.667,10.833c0,0 20,143.333 52.5,155.833Z"/></clipPath><g clip-path="url(#_clip4)"><path d="M3264.434,4826.123c0.833,-20.833 -5,-110.833 -10,-128.333c-5,-17.5 -0.833,-100.833 3.333,-118.333c4.167,-17.5 -1.667,-83.333 14.167,-106.667c15.833,-23.333 314.167,161.667 314.167,161.667l-100.833,309.167c0,0 -221.667,-96.667 -220.833,-117.5Z" style="fill:#6c5295;"/></g><path d="M2675.021,3872.091c-9.028,-29.861 -17.311,-49.089 -10.367,-54.644c6.944,-5.556 36.544,-11.806 38.628,-18.75c2.083,-6.944 -9.722,-73.611 -18.75,-72.222c-9.028,1.389 -78.472,26.389 -90.972,33.333c-12.5,6.944 -41.667,9.722 -58.333,35.417c-12.838,19.792 -25,25 -45.139,18.056c-20.139,-6.944 -25.694,-7.639 -34.028,-3.472c-8.333,4.167 -28.472,17.361 -26.389,28.472c2.083,11.111 28.472,18.75 40.972,31.944c12.5,13.194 38.889,40.278 43.75,44.444c4.861,4.167 6.944,3.472 18.75,1.389c11.806,-2.083 33.333,-10.417 33.333,-10.417c0,0 -13.194,-29.167 -5.556,-35.417c7.639,-6.25 52.083,-26.389 68.056,-22.222c15.972,4.167 14.1,8.117 46.044,24.089Z" style="fill:#ebeff6;"/><path d="M2658.878,3514.178c20.833,10.417 68.75,68.75 68.75,68.75l15.625,0c0,0 30.208,147.917 37.5,155.208c7.292,7.292 79.167,83.333 86.458,100c7.292,16.667 77.083,120.833 87.5,140.625c10.417,19.792 51.042,48.958 56.25,60.417c5.208,11.458 3.125,67.708 11.458,81.25c8.333,13.542 30.208,47.917 30.208,47.917l2.083,29.167c0,0 87.5,78.125 93.75,96.875c6.25,18.75 60.417,136.458 92.708,181.25c21.982,30.491 68.276,92.357 155.101,144.854c40.723,24.622 96.946,39.683 151.149,63.48c171.498,75.292 25,-681.25 25,-681.25l-868.75,-558.333c0,0 -65.625,59.375 -44.792,69.792Z" style="fill:#935e8f;"/><clipPath id="_clip5"><path d="M2658.878,3514.178c20.833,10.417 68.75,68.75 68.75,68.75l15.625,0c0,0 30.208,147.917 37.5,155.208c7.292,7.292 79.167,83.333 86.458,100c7.292,16.667 77.083,120.833 87.5,140.625c10.417,19.792 51.042,48.958 56.25,60.417c5.208,11.458 3.125,67.708 11.458,81.25c8.333,13.542 30.208,47.917 30.208,47.917l2.083,29.167c0,0 87.5,78.125 93.75,96.875c6.25,18.75 60.417,136.458 92.708,181.25c21.982,30.491 68.276,92.357 155.101,144.854c40.723,24.622 96.946,39.683 151.149,63.48c171.498,75.292 25,-681.25 25,-681.25l-868.75,-558.333c0,0 -65.625,59.375 -44.792,69.792Z"/></clipPath><g clip-path="url(#_clip5)"><path d="M3545.475,4246.261c-16.667,-14.167 -59.167,-40.833 -61.667,-50c-2.5,-9.167 -49.167,-145.833 -70,-164.167c-12.5,24.167 -31.667,100.833 -44.167,96.667c-12.5,-4.167 -27.5,-77.5 -27.5,-89.167c0,-11.667 -24.167,-79.167 -24.167,-79.167c0,0 -2.5,79.167 -2.5,92.5c0,13.333 35,170 41.667,198.333c6.667,28.333 14.167,109.167 0.833,110.833c-13.333,1.667 -36.667,-40 -36.667,-40c0,0 -15,30.833 -24.167,27.5c-9.167,-3.333 10,-143.333 9.167,-165c-0.833,-21.667 -48.333,-185 -48.333,-185c0,0 -2.5,176.667 -10,182.5c-7.5,5.833 -25,-57.5 -22.5,-77.5c-13.333,30.833 -24.167,52.5 -24.167,52.5c0,0 1.667,-22.5 -7.5,-28.333c-9.167,-5.833 -35,-35.833 -31.667,-52.5c3.333,-16.667 20,-141.667 -9.167,-170c-32.5,-17.5 -104.167,-65.833 -125.833,-108.333c-1.667,61.667 1.667,202.5 1.667,202.5c0,0 -13.333,-82.5 -26.667,-93.333c-13.333,-10.833 -34.167,-69.167 -47.5,-72.5c-13.333,-3.333 -27.5,-14.167 -35.833,-22.5c-8.333,-8.333 -31.667,-89.167 -50,-100.833c1.667,70.833 3.333,158.333 3.333,158.333l108.333,188.333l91.667,270.833l265.833,339.167l240.833,40c0,0 -16.667,-447.5 -33.333,-461.667Z" style="fill:#754882;"/></g><path d="M2167.072,3419.178c12.5,27.5 38.333,78.333 57.5,84.167c19.167,5.833 35.833,30 41.667,50.833c5.833,20.833 52.5,57.5 67.5,70c15,12.5 36.667,55 45,68.333c8.333,13.333 22.5,28.333 44.167,31.667c21.667,3.333 71.667,-6.667 79.167,-5c7.5,1.667 20,10.833 27.5,10c7.5,-0.833 30,-31.667 41.667,-40c11.667,-8.333 32.5,-24.167 32.5,-24.167c0,0 35,-47.5 32.5,-55.833c-2.5,-8.333 -57.5,-91.667 -63.333,-108.333c-5.833,-16.667 -418.333,-109.167 -405.833,-81.667Z" style="fill:#5b5294;"/><path d="M2135.892,3398.298c-37.5,20 -74.167,27.5 -90.833,42.5c-16.667,15 -40,50 -69.167,63.333c-29.167,13.333 -110,40 -135.833,40c-25.833,0 -56.667,-5 -69.167,-0.833c-12.5,4.167 -73.333,25.833 -84.167,26.667c-10.833,0.833 -20,18.333 -35.833,21.667c-15.833,3.333 -45,-5.833 -57.5,10.833c-12.5,16.667 -47.5,111.667 -62.5,119.167c-15,7.5 -20.833,0 -30.833,8.333c-10,8.333 -35,69.167 -61.667,85.833c-26.667,16.667 -47.5,21.667 -64.167,42.5c-16.667,20.833 -27.5,94.167 -50,106.667c-22.5,12.5 -65,19.167 -75,50.833c-10,31.667 -33.333,109.167 -43.333,126.667c-10,17.5 -69.167,118.333 -85,130c-15.833,11.667 -85,50 -106.667,60.833c-21.667,10.833 -80,5.833 -101.667,8.333c-21.667,2.5 -63.333,19.167 -78.333,17.5c-15,-1.667 -45.833,-8.333 -59.167,-8.333c-13.333,0 -52.5,16.667 -75.833,16.667c-23.333,0 -139.167,-3.333 -147.5,-5.833c-8.333,-2.5 -93.333,-47.5 -103.333,-51.667c-10,-4.167 -17.5,-19.167 -25.833,-40c-8.333,-20.833 -19.167,-86.667 9.167,-138.333c28.333,-51.667 219.167,-181.667 245.833,-212.5c26.667,-30.833 190.833,-218.333 274.167,-244.167c83.333,-25.833 360.833,-231.667 418.333,-266.667c57.5,-35 199.167,-151.667 263.333,-192.5c64.167,-40.833 183.333,-62.5 221.667,-47.5c38.333,15 225,97.5 235.833,119.167c10.833,21.667 82.5,90.833 45,110.833Z" style="fill:#ad6381;"/><clipPath id="_clip6"><path d="M2135.892,3398.298c-37.5,20 -74.167,27.5 -90.833,42.5c-16.667,15 -40,50 -69.167,63.333c-29.167,13.333 -110,40 -135.833,40c-25.833,0 -56.667,-5 -69.167,-0.833c-12.5,4.167 -73.333,25.833 -84.167,26.667c-10.833,0.833 -20,18.333 -35.833,21.667c-15.833,3.333 -45,-5.833 -57.5,10.833c-12.5,16.667 -47.5,111.667 -62.5,119.167c-15,7.5 -20.833,0 -30.833,8.333c-10,8.333 -35,69.167 -61.667,85.833c-26.667,16.667 -47.5,21.667 -64.167,42.5c-16.667,20.833 -27.5,94.167 -50,106.667c-22.5,12.5 -65,19.167 -75,50.833c-10,31.667 -33.333,109.167 -43.333,126.667c-10,17.5 -69.167,118.333 -85,130c-15.833,11.667 -85,50 -106.667,60.833c-21.667,10.833 -80,5.833 -101.667,8.333c-21.667,2.5 -63.333,19.167 -78.333,17.5c-15,-1.667 -45.833,-8.333 -59.167,-8.333c-13.333,0 -52.5,16.667 -75.833,16.667c-23.333,0 -139.167,-3.333 -147.5,-5.833c-8.333,-2.5 -93.333,-47.5 -103.333,-51.667c-10,-4.167 -17.5,-19.167 -25.833,-40c-8.333,-20.833 -19.167,-86.667 9.167,-138.333c28.333,-51.667 219.167,-181.667 245.833,-212.5c26.667,-30.833 190.833,-218.333 274.167,-244.167c83.333,-25.833 360.833,-231.667 418.333,-266.667c57.5,-35 199.167,-151.667 263.333,-192.5c64.167,-40.833 183.333,-62.5 221.667,-47.5c38.333,15 225,97.5 235.833,119.167c10.833,21.667 82.5,90.833 45,110.833Z"/></clipPath><g clip-path="url(#_clip6)"><path d="M1786.864,3482.095c-80.208,21.875 -218.75,79.167 -232.292,88.542c-13.542,9.375 -54.167,80.208 -77.083,103.125c-22.917,22.917 -85.417,57.292 -96.875,75c-11.458,17.708 -23.958,51.042 -35.417,57.292c-11.458,6.25 -198.958,63.542 -217.708,82.292c-18.75,18.75 -138.542,245.833 -153.125,252.083c-14.583,6.25 -82.292,32.292 -78.125,45.833c4.167,13.542 55.208,-8.333 73.958,-4.167c18.75,4.167 92.708,17.708 129.167,18.75c36.458,1.042 107.292,-4.167 118.75,-8.333c11.458,-4.167 501.042,-560.417 501.042,-560.417c0,0 -1.042,-92.708 67.708,-150Z" style="fill:#c87587;"/><path d="M1201.447,4152.928c1.042,-7.292 5.208,-16.667 -11.458,-11.458c-16.667,5.208 -69.792,29.167 -78.125,29.167c-8.333,0 -1.042,-54.167 -13.542,-44.792c-12.5,9.375 -115.625,52.083 -130.208,57.292c-14.583,5.208 -180.208,85.417 -180.208,85.417c0,0 -131.25,-73.958 -145.833,-69.792c-14.583,4.167 -108.333,61.458 -128.125,62.5c-19.792,1.042 -46.875,-15.625 -61.458,-17.708c-14.583,-2.083 -62.5,19.792 -57.292,37.5c5.208,17.708 95.833,143.75 202.083,156.25c106.25,12.5 352.083,-14.583 444.792,-28.125c92.708,-13.542 185.417,-160.417 195.833,-181.25c10.417,-20.833 -37.5,-67.708 -36.458,-75Z" style="fill:#ebeff5;"/></g><path d="M1742.072,3196.562c35.833,22.5 46.667,33.333 64.167,31.667c17.5,-1.667 137.5,5 147.5,10.833c10,5.833 95.833,124.167 115.833,135c20,10.833 116.667,68.333 144.167,80.833c27.5,12.5 118.333,48.333 135,59.167c16.667,10.833 66.667,7.5 74.167,12.5c7.5,5 15.833,8.333 30.833,2.5c15,-5.833 25,-15.833 50.833,-15c25.833,0.833 199.167,1.667 227.5,0.833c28.333,-0.833 -730.833,-466.667 -730.833,-466.667l-250,80c0,0 -45,45.833 -9.167,68.333Z" style="fill:#6076ac;"/><path d="M1871.19,3100.361c-35.417,32.639 -101.389,110.417 -118.75,113.889c-17.361,3.472 -40.278,1.389 -51.389,15.972c-11.111,14.583 -65.972,61.111 -77.778,72.917c-11.806,11.806 -156.944,183.333 -174.306,190.278c-17.361,6.944 -45.833,-4.167 -76.389,15.972c-30.556,20.139 -236.806,177.778 -265.972,189.583c-29.167,11.806 -256.25,98.611 -290.278,138.889c-34.028,40.278 -75.694,106.25 -81.25,122.222c-5.556,15.972 -50.694,65.972 -69.444,80.556c-18.75,14.583 -91.667,43.056 -101.389,56.944c-9.722,13.889 -64.738,62.643 -70.139,81.944c-6.177,22.076 -25.801,71.498 -42.361,76.389c-24.013,7.092 -45.139,43.75 -57.639,61.111c-11.704,16.256 -206.25,111.111 -236.806,131.944c-30.556,20.833 -143.75,120.833 -169.444,131.25c-25.694,10.417 -26.389,-1508.333 -26.389,-1508.333l1214.583,-45.139l687.5,11.111c0,0 43.056,29.861 7.639,62.5Z" style="fill:#735490;"/><clipPath id="_clip7"><path d="M1871.19,3100.361c-35.417,32.639 -101.389,110.417 -118.75,113.889c-17.361,3.472 -40.278,1.389 -51.389,15.972c-11.111,14.583 -65.972,61.111 -77.778,72.917c-11.806,11.806 -156.944,183.333 -174.306,190.278c-17.361,6.944 -45.833,-4.167 -76.389,15.972c-30.556,20.139 -236.806,177.778 -265.972,189.583c-29.167,11.806 -256.25,98.611 -290.278,138.889c-34.028,40.278 -75.694,106.25 -81.25,122.222c-5.556,15.972 -50.694,65.972 -69.444,80.556c-18.75,14.583 -91.667,43.056 -101.389,56.944c-9.722,13.889 -64.738,62.643 -70.139,81.944c-6.177,22.076 -25.801,71.498 -42.361,76.389c-24.013,7.092 -45.139,43.75 -57.639,61.111c-11.704,16.256 -206.25,111.111 -236.806,131.944c-30.556,20.833 -143.75,120.833 -169.444,131.25c-25.694,10.417 -26.389,-1508.333 -26.389,-1508.333l1214.583,-45.139l687.5,11.111c0,0 43.056,29.861 7.639,62.5Z"/></clipPath><g clip-path="url(#_clip7)"><path d="M1770.052,3063.199c-53.333,36.667 -68.333,56.667 -98.333,73.333c-30,16.667 -375.833,187.5 -410.833,205.833c-35,18.333 -251.667,267.5 -265,274.167c-13.333,6.667 -340.833,164.167 -346.667,176.667c-5.833,12.5 -87.5,280 -101.667,290.833c-14.167,10.833 -141.667,72.5 -185.833,114.167c-44.167,41.667 -145.833,209.167 -155,220c-9.167,10.833 -200,146.667 -224.167,160c-24.167,13.333 -2.5,-1567.5 -2.5,-1567.5c0,0 1843.333,15.833 1790,52.5Z" style="fill:#48457d;"/></g><path d="M1271.875,3020.591c-23.958,23.958 -60.417,48.958 -75,57.292c-14.583,8.333 -154.167,68.75 -172.917,75c-18.75,6.25 -165.625,18.75 -175,18.75c-9.375,0 -13.542,43.75 -20.833,48.958c-7.292,5.208 -117.708,51.042 -129.167,64.583c-11.458,13.542 -80.208,64.583 -86.458,79.167c-6.25,14.583 -98.958,189.583 -139.583,222.917c-40.625,33.333 -176.042,232.292 -221.875,252.083c-45.833,19.792 -109.375,94.792 -123.958,108.333c-14.583,13.542 -134.375,215.625 -152.083,232.292c-17.708,16.667 -97.917,-1181.25 -6.25,-1180.208c91.667,1.042 1238.542,19.792 1303.125,20.833Z" style="fill:#4a3060;"/><path d="M1199.513,3019.413c77.083,33.333 189.724,65.414 223.057,61.247c33.333,-4.167 97.917,-6.25 129.167,-7.292c31.25,-1.042 132.292,19.792 144.792,17.708c12.5,-2.083 33.333,-15.625 56.25,-13.542c22.917,2.083 96.875,28.125 139.583,31.25c42.708,3.125 140.972,47.917 193.403,68.75c52.431,20.833 108.681,34.375 133.681,55.208c25,20.833 118.75,103.125 160.417,123.958c41.667,20.833 187.5,82.292 251.042,112.5c63.542,30.208 206.25,129.167 252.083,157.292c45.833,28.125 250,168.75 330.208,196.875c80.208,28.125 119.792,58.333 128.125,70.833c8.333,12.5 162.5,156.25 206.25,175c43.75,18.75 28.125,-572.917 28.125,-572.917l-1490.625,-484.375c0,0 -742.849,10.628 -885.557,7.503Z" style="fill:#694078;"/><path d="M2085.337,3011.911c120.833,66.667 275.427,124.653 342.093,151.736c66.667,27.083 200,87.5 260.417,125c60.417,37.5 445.833,262.5 502.083,287.5c56.25,25 318.75,106.25 372.917,106.25c54.167,0 125,-689.583 -8.333,-689.583c-133.333,0 -1192.093,12.847 -1469.177,19.097Z" style="fill:#5b3163;"/><g id="Ebene1" opacity="0.25"><path d="M2639.255,4656.614c59.722,4.583 352.5,92.5 410.833,107.5c58.333,15 62.653,14.277 40,-30c-18.333,-35.833 -35,-46.667 -81.667,-45.833c-56.664,1.012 -27.5,-0.833 -61.667,0c-45.056,1.099 -42.5,-13.333 -15,-41.667c27.5,-28.333 -320.212,7.873 -292.5,10Z" style="fill:#fdecef;"/><path d="M743.6,4428.623c46.53,11.632 60.417,90.625 106.25,90.625c45.833,0 361.145,-91.42 408.333,-100c7.414,-1.348 3.768,-5.553 -8.985,-6.383c-73.161,-4.76 -429.403,1.858 -502.02,10.409c-12.538,1.476 -10.522,3.613 -3.578,5.349Z" style="fill:#f1edf2;"/><path d="M1276.422,4552.371c170.833,0 398.611,61.111 650,68.056c-254.167,4.167 -386.111,29.167 -452.778,29.167c-66.667,0 -63.889,63.889 -170.833,63.889c-106.944,0 -200,-76.389 -306.944,-76.389c108.056,-5 109.722,-84.722 280.556,-84.722Z" style="fill:#aa8dbd;"/><path d="M1629.408,4815.148c-210.417,-15.278 -308.333,-23.611 -431.944,-23.611c-123.611,0 -445.827,211.039 -588.889,245.833c157.728,37.501 117.361,69.444 221.528,76.389c96.62,6.441 168.75,-13.889 200.694,-18.056c31.944,-4.167 126.389,-59.722 163.889,-129.167c44.117,-81.697 215.278,-138.194 434.722,-151.389Z" style="fill:#aa8dbd;"/><path d="M892.602,5270.704c-152.778,-26.389 -159.722,-91.667 -291.667,-94.444c-131.944,-2.778 -136.806,83.333 -254.167,95.833c69.444,38.194 77.778,100 241.667,111.111c163.889,11.111 162.5,-85.417 304.167,-112.5Z" style="fill:#a68dbe;"/><path d="M2916.63,5003.065c89.167,6.667 189.167,14.167 189.167,14.167c0,0 36.667,51.667 145,89.167c-113.333,-33.333 -124.167,-16.667 -124.167,-16.667c0,0 -120,-65.833 -210,-86.667Z" style="fill:#f7eef1;"/><path d="M3097.602,5292.44c-156.944,-23.611 -155.556,-87.5 -298.611,-93.056c-143.056,-5.556 -830.556,344.444 -956.944,341.667c-126.389,-2.778 -115.278,536.111 -329.167,518.056c-213.889,-18.056 2094.444,61.111 1827.778,26.389c-266.667,-34.722 -496.528,-378.472 -631.944,-409.722c87.641,-31.865 92.423,-180.257 164.512,-278.049c62.175,-84.343 166.492,-96.923 224.377,-105.284Z" style="fill:url(#_Linear8);"/></g></g><g id="Image"><rect x="0" y="-0" width="3533.333" height="1875" style="fill:url(#_Linear9);"/><path d="M2081.243,1669.028c-10.13,-2.643 47.917,-51.042 86.458,-53.125c38.542,-2.083 201.042,-69.792 227.083,-78.125c26.042,-8.333 100,-1.042 114.583,4.167c14.583,5.208 251.042,104.167 295.833,109.375c44.792,5.208 -183.333,-4.167 -217.708,8.333c-34.375,12.5 -326.042,121.875 -385.417,115.625c-59.375,-6.25 -96.875,-100 -120.833,-106.25Z" style="fill:#eeeff4;"/><path d="M1275.757,1801.806c27.5,-4.167 33.333,-19.167 46.667,-16.667c13.333,2.5 14.167,14.167 33.333,18.333c19.167,4.167 50,3.333 59.167,10.833c9.167,7.5 25,43.333 32.5,45.833c7.5,2.5 15.833,10 23.333,4.167c7.5,-5.833 20.833,-35 31.667,-35.833c10.833,-0.833 44.167,9.167 55.833,6.667c11.667,-2.5 68.333,-73.333 77.5,-75c9.167,-1.667 70.833,16.667 80,26.667c9.167,10 20,21.667 20,21.667c0,0 19.167,-18.333 26.667,-20.833c7.5,-2.5 46.667,-17.5 64.167,-49.167c27.5,13.333 94.167,29.167 102.5,40.833c8.333,11.667 15.833,43.333 30,45.833c14.167,2.5 30,2.5 42.5,4.167c12.5,1.667 15.833,87.5 15.833,87.5l-662.5,63.333c0,0 -106.667,-174.167 -79.167,-178.333Z" style="fill:#d8b6d2;"/><path d="M1340.158,1930.332c57.817,21.385 103.472,19.444 125.694,19.444c22.222,0 184.028,-40.278 193.75,-52.778c9.722,-12.5 5.556,-15.278 -1.389,-25c-6.944,-9.722 76.389,13.889 97.222,12.5c20.833,-1.389 209.722,-4.167 244.444,-12.5c34.722,-8.333 173.611,-69.444 212.5,-81.944c38.889,-12.5 166.667,-9.722 227.778,-18.056c61.111,-8.333 259.722,18.056 295.833,29.167c36.111,11.111 90.278,70.833 112.5,83.333c22.222,12.5 58.333,176.389 63.889,193.056c5.556,16.667 -109.722,290.278 -152.778,309.722c-43.056,19.444 -159.722,48.611 -276.389,5.556c-116.667,-43.056 -443.056,-122.222 -612.5,-151.389c-169.444,-29.167 -630.556,-195.833 -673.611,-230.556c-43.056,-34.722 41.667,-118.056 143.056,-80.556Z" style="fill:#ebeef4;"/><path d="M1957.727,1971.304c5.833,3.333 54.167,-35 60.833,-31.667c6.667,3.333 -3.333,15.833 5,16.667c8.333,0.833 81.667,-31.667 85,-69.167c20.833,5.833 46.667,10 46.667,10c0,0 -3.333,-49.167 -5,-58.333c-1.667,-9.167 21.667,4.167 35.833,3.333c14.167,-0.833 52.5,-19.167 66.667,-19.167c14.167,0 92.5,19.167 96.667,26.667c4.167,7.5 -2.5,35.833 30,27.5c32.5,-8.333 65,-53.333 81.667,-54.167c16.667,-0.833 37.5,3.333 75,2.5c37.5,-0.833 102.5,18.333 132.5,-4.167c30,-22.5 30,-70.833 22.5,-88.333c-7.5,-17.5 -13.333,-37.5 -21.667,-43.333c-8.333,-5.833 -22.5,4.167 -31.667,-5.833c-9.167,-10 -27.5,-38.333 -37.5,-40.833c-10,-2.5 -30.833,5.833 -50,-1.667c-19.167,-7.5 -42.5,-28.333 -60,-30c-17.5,-1.667 -67.5,17.5 -90,17.5c-22.5,0 -70,17.5 -90.833,21.667c-20.833,4.167 -45.833,1.667 -65,25c-19.167,23.333 -15.833,52.5 -35.833,54.167c-20,1.667 -64.167,-47.5 -94.167,-40.833c-30,6.667 -85,21.667 -91.667,35c-6.667,13.333 -42.5,144.167 -39.167,157.5c3.333,13.333 -0.833,30 -5.833,43.333c-5,13.333 -25.833,43.333 -20,46.667Z" style="fill:#9588c0;"/><path d="M2373.144,2193.874c16.667,-4.167 28.333,-15.833 27.5,-24.167c-0.833,-8.333 22.5,-20.833 22.5,-20.833c0,0 8.333,-79.167 0.833,-81.667c-7.5,-2.5 -36.667,37.5 -36.667,37.5c0,0 28.333,-79.167 33.333,-97.5c5,-18.333 21.667,-80 35,-97.5c13.333,-17.5 44.167,-76.667 47.5,-88.333c3.333,-11.667 32.5,-25.833 32.5,-25.833c0,0 89.167,1.667 98.333,-1.667c9.167,-3.333 13.333,-34.167 25.833,-46.667c12.5,-12.5 13.333,-15.833 38.333,-15.833c25,0 96.667,29.167 104.167,35.833c7.5,6.667 50.833,98.333 68.333,105.833c17.5,7.5 82.5,34.167 88.333,44.167c5.833,10 -13.333,130.833 -74.167,151.667c-60.833,20.833 -170.833,238.333 -173.333,258.333c-2.5,20 -108.333,27.5 -130.833,0c-22.5,-27.5 -109.167,-82.5 -128.333,-87.5c-19.167,-5 -75.833,-2.5 -82.5,-19.167c-6.667,-16.667 -13.333,-22.5 3.333,-26.667Z" style="fill:#4d75b0;"/><clipPath id="_clip10"><path d="M2373.144,2193.874c16.667,-4.167 28.333,-15.833 27.5,-24.167c-0.833,-8.333 22.5,-20.833 22.5,-20.833c0,0 8.333,-79.167 0.833,-81.667c-7.5,-2.5 -36.667,37.5 -36.667,37.5c0,0 28.333,-79.167 33.333,-97.5c5,-18.333 21.667,-80 35,-97.5c13.333,-17.5 44.167,-76.667 47.5,-88.333c3.333,-11.667 32.5,-25.833 32.5,-25.833c0,0 89.167,1.667 98.333,-1.667c9.167,-3.333 13.333,-34.167 25.833,-46.667c12.5,-12.5 13.333,-15.833 38.333,-15.833c25,0 96.667,29.167 104.167,35.833c7.5,6.667 50.833,98.333 68.333,105.833c17.5,7.5 82.5,34.167 88.333,44.167c5.833,10 -13.333,130.833 -74.167,151.667c-60.833,20.833 -170.833,238.333 -173.333,258.333c-2.5,20 -108.333,27.5 -130.833,0c-22.5,-27.5 -109.167,-82.5 -128.333,-87.5c-19.167,-5 -75.833,-2.5 -82.5,-19.167c-6.667,-16.667 -13.333,-22.5 3.333,-26.667Z"/></clipPath><g clip-path="url(#_clip10)"><path d="M2811.135,1902.478c-2.713,10.258 -30.924,9.178 -53.167,1.08c-22.243,-8.098 -35.806,-22.676 -31.466,-25.915c4.34,-3.239 51.539,-3.239 61.847,-1.08c10.308,2.16 25.498,15.657 22.786,25.915Z" style="fill:#e8f5fc;"/></g><path d="M2712.38,2243.457c-17.5,-4.167 -49.167,-10.833 -52.5,-20.833c-3.333,-10 49.167,-150.833 53.333,-166.667c10.833,24.167 15.833,51.667 24.167,49.167c8.333,-2.5 87.5,-40 95.833,-52.5c8.333,-12.5 19.167,-4.167 31.667,-6.667c12.5,-2.5 76.667,-57.5 94.167,-65.833c17.5,-8.333 -64.167,185 -64.167,185c0,0 -165,82.5 -182.5,78.333Z" style="fill:#6d8ec5;"/><path d="M984.255,1720.263c35.417,-3.125 71.875,-30.208 105.208,-26.042c33.333,4.167 46.875,41.667 62.5,43.75c15.625,2.083 82.292,1.042 106.25,19.792c23.958,18.75 92.708,187.5 118.75,201.042c26.042,13.542 25,19.792 41.667,25c16.667,5.208 16.667,-4.167 27.083,0c10.417,4.167 21.875,20.833 33.333,20.833c11.458,0 26.042,-7.292 35.417,-4.167c9.375,3.125 12.5,17.708 26.042,17.708c13.542,0 75,-34.375 88.542,-33.333c13.542,1.042 30.208,11.458 40.625,11.458c10.417,0 23.958,-1.042 35.417,3.125c11.458,4.167 80.208,73.958 96.875,70.833c16.667,-3.125 108.333,-16.667 127.083,-12.5c18.75,4.167 44.792,31.25 64.583,37.5c19.792,6.25 62.5,8.333 81.25,18.75c18.75,10.417 42.708,25 56.25,25c13.542,0 39.583,-2.083 50,1.042c10.417,3.125 29.167,36.458 44.792,36.458c15.625,0 48.958,-42.708 66.667,-39.583c17.708,3.125 20.833,21.875 33.333,21.875c12.5,0 19.792,0 30.208,4.167c10.417,4.167 13.542,27.083 27.083,28.125c13.542,1.042 39.583,1.042 48.958,9.375c9.375,8.333 8.333,22.917 21.875,27.083c13.542,4.167 42.708,-8.333 59.375,-4.167c16.667,4.167 31.25,36.458 56.25,45.833c25,9.375 89.583,36.458 132.292,50c42.708,13.542 -4.167,153.125 -65.625,155.208c-37.338,1.266 -552.926,23.078 -923.838,-59.046c-239.605,-53.051 -387.274,-217.456 -412.62,-230.538c-64.583,-33.333 -351.042,-461.458 -315.625,-464.583Z" style="fill:#6088c3;"/><path d="M1206.795,1978.045c70.833,11.111 79.167,19.444 102.778,26.389c23.611,6.944 52.778,19.444 76.389,25c23.611,5.556 31.944,25 69.444,31.944c37.5,6.944 55.556,23.611 72.222,44.444c16.667,20.833 8.333,33.333 23.611,37.5c15.278,4.167 29.167,-2.778 48.611,12.5c19.444,15.278 125,227.778 137.5,223.611c12.5,-4.167 22.222,-27.778 33.333,-34.722c11.111,-6.944 55.556,-6.944 55.556,-6.944c0,0 16.667,-41.667 30.556,-51.389c13.889,-9.722 50,-27.778 50,-27.778c0,0 9.722,31.944 27.778,29.167c18.056,-2.778 44.444,-62.5 61.111,-62.5c16.667,0 75,61.111 112.5,52.778c37.5,-8.333 48.611,-38.889 66.667,-40.278c18.056,-1.389 122.222,13.889 145.833,15.278c23.611,1.389 72.222,-9.722 84.722,-8.333c12.5,1.389 73.611,63.889 98.611,94.444c25,30.556 -315.278,383.333 -315.278,383.333l-970.833,-368.056c0,0 -81.944,-387.5 -11.111,-376.389Z" style="fill:#685e9e;"/><path d="M2597.142,2416.379c32.5,-12.5 65,-29.167 72.5,-42.5c7.5,-13.333 33.333,-177.5 44.167,-193.333c10.833,-15.833 70.9,-62.872 94.167,-95.833c10,-14.167 80.833,-7.5 92.5,-17.5c11.667,-10 42.5,-69.167 44.167,-78.333c1.667,-9.167 5.833,-65.833 7.5,-76.667c1.667,-10.833 35,-93.333 40,-105.833c5,-12.5 6.667,-56.667 7.5,-65c0.833,-8.333 41.667,-62.5 43.333,-74.167c1.667,-11.667 12.5,-77.5 20,-100c7.5,-22.5 39.167,-99.167 39.167,-99.167c0,0 47.5,-33.333 53.333,-45.833c5.833,-12.5 16.667,-59.167 28.333,-77.5c11.667,-18.333 5,-76.667 25,-87.5c20,-10.833 44.167,-13.333 51.667,-16.667c7.5,-3.333 35.833,-33.333 35.833,-33.333l97.5,15l16.667,-35.833l55.833,8.333c0,0 20.833,44.167 29.167,54.167c8.333,10 18.333,104.167 46.667,113.333c28.333,9.167 -268.333,314.167 -268.333,314.167l-213.333,411.667l-270,362.5l-114.167,132.5l-131.667,-10.833c0,0 20,-143.333 52.5,-155.833Z" style="fill:#cb7484;"/><clipPath id="_clip11"><path d="M2597.142,2416.379c32.5,-12.5 65,-29.167 72.5,-42.5c7.5,-13.333 33.333,-177.5 44.167,-193.333c10.833,-15.833 70.9,-62.872 94.167,-95.833c10,-14.167 80.833,-7.5 92.5,-17.5c11.667,-10 42.5,-69.167 44.167,-78.333c1.667,-9.167 5.833,-65.833 7.5,-76.667c1.667,-10.833 35,-93.333 40,-105.833c5,-12.5 6.667,-56.667 7.5,-65c0.833,-8.333 41.667,-62.5 43.333,-74.167c1.667,-11.667 12.5,-77.5 20,-100c7.5,-22.5 39.167,-99.167 39.167,-99.167c0,0 47.5,-33.333 53.333,-45.833c5.833,-12.5 16.667,-59.167 28.333,-77.5c11.667,-18.333 5,-76.667 25,-87.5c20,-10.833 44.167,-13.333 51.667,-16.667c7.5,-3.333 35.833,-33.333 35.833,-33.333l97.5,15l16.667,-35.833l55.833,8.333c0,0 20.833,44.167 29.167,54.167c8.333,10 18.333,104.167 46.667,113.333c28.333,9.167 -268.333,314.167 -268.333,314.167l-213.333,411.667l-270,362.5l-114.167,132.5l-131.667,-10.833c0,0 20,-143.333 52.5,-155.833Z"/></clipPath><g clip-path="url(#_clip11)"><path d="M3264.434,1215.267c0.833,20.833 -5,110.833 -10,128.333c-5,17.5 -0.833,100.833 3.333,118.333c4.167,17.5 -1.667,83.333 14.167,106.667c15.833,23.333 314.167,-161.667 314.167,-161.667l-100.833,-309.167c0,0 -221.667,96.667 -220.833,117.5Z" style="fill:#665095;"/></g><path d="M2675.021,2169.299c-9.028,29.861 -17.311,49.089 -10.367,54.644c6.944,5.556 36.544,11.806 38.628,18.75c2.083,6.944 -9.722,73.611 -18.75,72.222c-9.028,-1.389 -78.472,-26.389 -90.972,-33.333c-12.5,-6.944 -41.667,-9.722 -58.333,-35.417c-12.838,-19.792 -25,-25 -45.139,-18.056c-20.139,6.944 -25.694,7.639 -34.028,3.472c-8.333,-4.167 -28.472,-17.361 -26.389,-28.472c2.083,-11.111 28.472,-18.75 40.972,-31.944c12.5,-13.194 38.889,-40.278 43.75,-44.444c4.861,-4.167 6.944,-3.472 18.75,-1.389c11.806,2.083 33.333,10.417 33.333,10.417c0,0 -13.194,29.167 -5.556,35.417c7.639,6.25 52.083,26.389 68.056,22.222c15.972,-4.167 14.1,-8.117 46.044,-24.089Z" style="fill:#ebeff6;"/><path d="M2658.878,2527.212c20.833,-10.417 68.75,-68.75 68.75,-68.75l15.625,0c0,0 30.208,-147.917 37.5,-155.208c7.292,-7.292 79.167,-83.333 86.458,-100c7.292,-16.667 77.083,-120.833 87.5,-140.625c10.417,-19.792 51.042,-48.958 56.25,-60.417c5.208,-11.458 3.125,-67.708 11.458,-81.25c8.333,-13.542 30.208,-47.917 30.208,-47.917l2.083,-29.167c0,0 87.5,-78.125 93.75,-96.875c6.25,-18.75 60.417,-136.458 92.708,-181.25c21.982,-30.491 68.276,-92.357 155.101,-144.854c40.723,-24.622 96.946,-39.683 151.149,-63.48c171.498,-75.292 25,681.25 25,681.25l-868.75,558.333c0,0 -65.625,-59.375 -44.792,-69.792Z" style="fill:#8f5889;"/><clipPath id="_clip12"><path d="M2658.878,2527.212c20.833,-10.417 68.75,-68.75 68.75,-68.75l15.625,0c0,0 30.208,-147.917 37.5,-155.208c7.292,-7.292 79.167,-83.333 86.458,-100c7.292,-16.667 77.083,-120.833 87.5,-140.625c10.417,-19.792 51.042,-48.958 56.25,-60.417c5.208,-11.458 3.125,-67.708 11.458,-81.25c8.333,-13.542 30.208,-47.917 30.208,-47.917l2.083,-29.167c0,0 87.5,-78.125 93.75,-96.875c6.25,-18.75 60.417,-136.458 92.708,-181.25c21.982,-30.491 68.276,-92.357 155.101,-144.854c40.723,-24.622 96.946,-39.683 151.149,-63.48c171.498,-75.292 25,681.25 25,681.25l-868.75,558.333c0,0 -65.625,-59.375 -44.792,-69.792Z"/></clipPath><g clip-path="url(#_clip12)"><path d="M3545.475,1795.129c-16.667,14.167 -59.167,40.833 -61.667,50c-2.5,9.167 -49.167,145.833 -70,164.167c-12.5,-24.167 -31.667,-100.833 -44.167,-96.667c-12.5,4.167 -27.5,77.5 -27.5,89.167c0,11.667 -24.167,79.167 -24.167,79.167c0,0 -2.5,-79.167 -2.5,-92.5c0,-13.333 35,-170 41.667,-198.333c6.667,-28.333 14.167,-109.167 0.833,-110.833c-13.333,-1.667 -36.667,40 -36.667,40c0,0 -15,-30.833 -24.167,-27.5c-9.167,3.333 10,143.333 9.167,165c-0.833,21.667 -48.333,185 -48.333,185c0,0 -2.5,-176.667 -10,-182.5c-7.5,-5.833 -25,57.5 -22.5,77.5c-13.333,-30.833 -24.167,-52.5 -24.167,-52.5c0,0 1.667,22.5 -7.5,28.333c-9.167,5.833 -35,35.833 -31.667,52.5c3.333,16.667 20,141.667 -9.167,170c-32.5,17.5 -104.167,65.833 -125.833,108.333c-1.667,-61.667 1.667,-202.5 1.667,-202.5c0,0 -13.333,82.5 -26.667,93.333c-13.333,10.833 -34.167,69.167 -47.5,72.5c-13.333,3.333 -27.5,14.167 -35.833,22.5c-8.333,8.333 -31.667,89.167 -50,100.833c1.667,-70.833 3.333,-158.333 3.333,-158.333l108.333,-188.333l91.667,-270.833l265.833,-339.167l240.833,-40c0,0 -16.667,447.5 -33.333,461.667Z" style="fill:#70437f;"/></g><path d="M2167.072,2622.212c12.5,-27.5 38.333,-78.333 57.5,-84.167c19.167,-5.833 35.833,-30 41.667,-50.833c5.833,-20.833 52.5,-57.5 67.5,-70c15,-12.5 36.667,-55 45,-68.333c8.333,-13.333 22.5,-28.333 44.167,-31.667c21.667,-3.333 71.667,6.667 79.167,5c7.5,-1.667 20,-10.833 27.5,-10c7.5,0.833 30,31.667 41.667,40c11.667,8.333 32.5,24.167 32.5,24.167c0,0 35,47.5 32.5,55.833c-2.5,8.333 -57.5,91.667 -63.333,108.333c-5.833,16.667 -418.333,109.167 -405.833,81.667Z" style="fill:#4d4290;"/><path d="M2135.892,2643.092c-37.5,-20 -74.167,-27.5 -90.833,-42.5c-16.667,-15 -40,-50 -69.167,-63.333c-29.167,-13.333 -110,-40 -135.833,-40c-25.833,0 -56.667,5 -69.167,0.833c-12.5,-4.167 -73.333,-25.833 -84.167,-26.667c-10.833,-0.833 -20,-18.333 -35.833,-21.667c-15.833,-3.333 -45,5.833 -57.5,-10.833c-12.5,-16.667 -47.5,-111.667 -62.5,-119.167c-15,-7.5 -20.833,0 -30.833,-8.333c-10,-8.333 -35,-69.167 -61.667,-85.833c-26.667,-16.667 -47.5,-21.667 -64.167,-42.5c-16.667,-20.833 -27.5,-94.167 -50,-106.667c-22.5,-12.5 -65,-19.167 -75,-50.833c-10,-31.667 -33.333,-109.167 -43.333,-126.667c-10,-17.5 -69.167,-118.333 -85,-130c-15.833,-11.667 -85,-50 -106.667,-60.833c-21.667,-10.833 -80,-5.833 -101.667,-8.333c-21.667,-2.5 -63.333,-19.167 -78.333,-17.5c-15,1.667 -45.833,8.333 -59.167,8.333c-13.333,0 -52.5,-16.667 -75.833,-16.667c-23.333,0 -139.167,3.333 -147.5,5.833c-8.333,2.5 -93.333,47.5 -103.333,51.667c-10,4.167 -17.5,19.167 -25.833,40c-8.333,20.833 -19.167,86.667 9.167,138.333c28.333,51.667 219.167,181.667 245.833,212.5c26.667,30.833 190.833,218.333 274.167,244.167c83.333,25.833 360.833,231.667 418.333,266.667c57.5,35 199.167,151.667 263.333,192.5c64.167,40.833 183.333,62.5 221.667,47.5c38.333,-15 225,-97.5 235.833,-119.167c10.833,-21.667 82.5,-90.833 45,-110.833Z" style="fill:#a55877;"/><clipPath id="_clip13"><path d="M2135.892,2643.092c-37.5,-20 -74.167,-27.5 -90.833,-42.5c-16.667,-15 -40,-50 -69.167,-63.333c-29.167,-13.333 -110,-40 -135.833,-40c-25.833,0 -56.667,5 -69.167,0.833c-12.5,-4.167 -73.333,-25.833 -84.167,-26.667c-10.833,-0.833 -20,-18.333 -35.833,-21.667c-15.833,-3.333 -45,5.833 -57.5,-10.833c-12.5,-16.667 -47.5,-111.667 -62.5,-119.167c-15,-7.5 -20.833,0 -30.833,-8.333c-10,-8.333 -35,-69.167 -61.667,-85.833c-26.667,-16.667 -47.5,-21.667 -64.167,-42.5c-16.667,-20.833 -27.5,-94.167 -50,-106.667c-22.5,-12.5 -65,-19.167 -75,-50.833c-10,-31.667 -33.333,-109.167 -43.333,-126.667c-10,-17.5 -69.167,-118.333 -85,-130c-15.833,-11.667 -85,-50 -106.667,-60.833c-21.667,-10.833 -80,-5.833 -101.667,-8.333c-21.667,-2.5 -63.333,-19.167 -78.333,-17.5c-15,1.667 -45.833,8.333 -59.167,8.333c-13.333,0 -52.5,-16.667 -75.833,-16.667c-23.333,0 -139.167,3.333 -147.5,5.833c-8.333,2.5 -93.333,47.5 -103.333,51.667c-10,4.167 -17.5,19.167 -25.833,40c-8.333,20.833 -19.167,86.667 9.167,138.333c28.333,51.667 219.167,181.667 245.833,212.5c26.667,30.833 190.833,218.333 274.167,244.167c83.333,25.833 360.833,231.667 418.333,266.667c57.5,35 199.167,151.667 263.333,192.5c64.167,40.833 183.333,62.5 221.667,47.5c38.333,-15 225,-97.5 235.833,-119.167c10.833,-21.667 82.5,-90.833 45,-110.833Z"/></clipPath><g clip-path="url(#_clip13)"><path d="M1786.864,2559.295c-80.208,-21.875 -218.75,-79.167 -232.292,-88.542c-13.542,-9.375 -54.167,-80.208 -77.083,-103.125c-22.917,-22.917 -85.417,-57.292 -96.875,-75c-11.458,-17.708 -23.958,-51.042 -35.417,-57.292c-11.458,-6.25 -198.958,-63.542 -217.708,-82.292c-18.75,-18.75 -138.542,-245.833 -153.125,-252.083c-14.583,-6.25 -82.292,-32.292 -78.125,-45.833c4.167,-13.542 55.208,8.333 73.958,4.167c18.75,-4.167 92.708,-17.708 129.167,-18.75c36.458,-1.042 107.292,4.167 118.75,8.333c11.458,4.167 501.042,560.417 501.042,560.417c0,0 -1.042,92.708 67.708,150Z" style="fill:#cc7585;"/><path d="M1201.447,1888.462c1.042,7.292 5.208,16.667 -11.458,11.458c-16.667,-5.208 -69.792,-29.167 -78.125,-29.167c-8.333,0 -1.042,54.167 -13.542,44.792c-12.5,-9.375 -115.625,-52.083 -130.208,-57.292c-14.583,-5.208 -180.208,-85.417 -180.208,-85.417c0,0 -131.25,73.958 -145.833,69.792c-14.583,-4.167 -108.333,-61.458 -128.125,-62.5c-19.792,-1.042 -46.875,15.625 -61.458,17.708c-14.583,2.083 -62.5,-19.792 -57.292,-37.5c5.208,-17.708 95.833,-143.75 202.083,-156.25c106.25,-12.5 352.083,14.583 444.792,28.125c92.708,13.542 185.417,160.417 195.833,181.25c10.417,20.833 -37.5,67.708 -36.458,75Z" style="fill:#ebeff5;"/></g><path d="M1742.072,2844.828c35.833,-22.5 46.667,-33.333 64.167,-31.667c17.5,1.667 137.5,-5 147.5,-10.833c10,-5.833 95.833,-124.167 115.833,-135c20,-10.833 116.667,-68.333 144.167,-80.833c27.5,-12.5 118.333,-48.333 135,-59.167c16.667,-10.833 66.667,-7.5 74.167,-12.5c7.5,-5 15.833,-8.333 30.833,-2.5c15,5.833 25,15.833 50.833,15c25.833,-0.833 199.167,-1.667 227.5,-0.833c28.333,0.833 -730.833,466.667 -730.833,466.667l-250,-80c0,0 -45,-45.833 -9.167,-68.333Z" style="fill:#4c68a2;"/><path d="M1871.19,2941.029c-35.417,-32.639 -101.389,-110.417 -118.75,-113.889c-17.361,-3.472 -40.278,-1.389 -51.389,-15.972c-11.111,-14.583 -65.972,-61.111 -77.778,-72.917c-11.806,-11.806 -156.944,-183.333 -174.306,-190.278c-17.361,-6.944 -45.833,4.167 -76.389,-15.972c-30.556,-20.139 -236.806,-177.778 -265.972,-189.583c-29.167,-11.806 -256.25,-98.611 -290.278,-138.889c-34.028,-40.278 -75.694,-106.25 -81.25,-122.222c-5.556,-15.972 -50.694,-65.972 -69.444,-80.556c-18.75,-14.583 -91.667,-43.056 -101.389,-56.944c-9.722,-13.889 -64.738,-62.643 -70.139,-81.944c-6.177,-22.076 -25.801,-71.498 -42.361,-76.389c-24.013,-7.092 -45.139,-43.75 -57.639,-61.111c-11.704,-16.256 -206.25,-111.111 -236.806,-131.944c-30.556,-20.833 -143.75,-120.833 -169.444,-131.25c-25.694,-10.417 -26.389,1508.333 -26.389,1508.333l1214.583,45.139l687.5,-11.111c0,0 43.056,-29.861 7.639,-62.5Z" style="fill:#664484;"/><clipPath id="_clip14"><path d="M1871.19,2941.029c-35.417,-32.639 -101.389,-110.417 -118.75,-113.889c-17.361,-3.472 -40.278,-1.389 -51.389,-15.972c-11.111,-14.583 -65.972,-61.111 -77.778,-72.917c-11.806,-11.806 -156.944,-183.333 -174.306,-190.278c-17.361,-6.944 -45.833,4.167 -76.389,-15.972c-30.556,-20.139 -236.806,-177.778 -265.972,-189.583c-29.167,-11.806 -256.25,-98.611 -290.278,-138.889c-34.028,-40.278 -75.694,-106.25 -81.25,-122.222c-5.556,-15.972 -50.694,-65.972 -69.444,-80.556c-18.75,-14.583 -91.667,-43.056 -101.389,-56.944c-9.722,-13.889 -64.738,-62.643 -70.139,-81.944c-6.177,-22.076 -25.801,-71.498 -42.361,-76.389c-24.013,-7.092 -45.139,-43.75 -57.639,-61.111c-11.704,-16.256 -206.25,-111.111 -236.806,-131.944c-30.556,-20.833 -143.75,-120.833 -169.444,-131.25c-25.694,-10.417 -26.389,1508.333 -26.389,1508.333l1214.583,45.139l687.5,-11.111c0,0 43.056,-29.861 7.639,-62.5Z"/></clipPath><g clip-path="url(#_clip14)"><path d="M1770.052,2978.191c-53.333,-36.667 -68.333,-56.667 -98.333,-73.333c-30,-16.667 -375.833,-187.5 -410.833,-205.833c-35,-18.333 -251.667,-267.5 -265,-274.167c-13.333,-6.667 -340.833,-164.167 -346.667,-176.667c-5.833,-12.5 -87.5,-280 -101.667,-290.833c-14.167,-10.833 -141.667,-72.5 -185.833,-114.167c-44.167,-41.667 -145.833,-209.167 -155,-220c-9.167,-10.833 -200,-146.667 -224.167,-160c-24.167,-13.333 -2.5,1567.5 -2.5,1567.5c0,0 1843.333,-15.833 1790,-52.5Z" style="fill:#302766;"/></g><path d="M1271.875,3020.799c-23.958,-23.958 -60.417,-48.958 -75,-57.292c-14.583,-8.333 -154.167,-68.75 -172.917,-75c-18.75,-6.25 -165.625,-18.75 -175,-18.75c-9.375,0 -13.542,-43.75 -20.833,-48.958c-7.292,-5.208 -117.708,-51.042 -129.167,-64.583c-11.458,-13.542 -80.208,-64.583 -86.458,-79.167c-6.25,-14.583 -98.958,-189.583 -139.583,-222.917c-40.625,-33.333 -176.042,-232.292 -221.875,-252.083c-45.833,-19.792 -109.375,-94.792 -123.958,-108.333c-14.583,-13.542 -134.375,-215.625 -152.083,-232.292c-17.708,-16.667 -97.917,1181.25 -6.25,1180.208c91.667,-1.042 1238.542,-19.792 1303.125,-20.833Z" style="fill:#23123f;"/><path d="M1199.513,3021.977c77.083,-33.333 189.724,-65.414 223.057,-61.247c33.333,4.167 97.917,6.25 129.167,7.292c31.25,1.042 132.292,-19.792 144.792,-17.708c12.5,2.083 33.333,15.625 56.25,13.542c22.917,-2.083 96.875,-28.125 139.583,-31.25c42.708,-3.125 140.972,-47.917 193.403,-68.75c52.431,-20.833 108.681,-34.375 133.681,-55.208c25,-20.833 118.75,-103.125 160.417,-123.958c41.667,-20.833 187.5,-82.292 251.042,-112.5c63.542,-30.208 206.25,-129.167 252.083,-157.292c45.833,-28.125 250,-168.75 330.208,-196.875c80.208,-28.125 119.792,-58.333 128.125,-70.833c8.333,-12.5 162.5,-156.25 206.25,-175c43.75,-18.75 28.125,572.917 28.125,572.917l-1490.625,484.375c0,0 -742.849,-10.628 -885.557,-7.503Z" style="fill:#4e2358;"/><path d="M2085.337,3029.479c120.833,-66.667 275.427,-124.653 342.093,-151.736c66.667,-27.083 200,-87.5 260.417,-125c60.417,-37.5 445.833,-262.5 502.083,-287.5c56.25,-25 318.75,-106.25 372.917,-106.25c54.167,0 125,689.583 -8.333,689.583c-133.333,0 -1192.093,-12.847 -1469.177,-19.097Z" style="fill:#361545;"/><path d="M190.624,1535.497l1.522,-1.27c0,0 0.845,2.016 2.258,2.372c1.413,0.356 8.102,-4.122 8.425,-7.197c0.323,-3.075 -1.4,-8.168 -6.172,-8.317c-4.772,-0.149 -5.558,4.763 -6.69,5.68c-1.133,0.917 -4.805,-1.21 -6.182,-2.308c-1.377,-1.098 -2.087,-5.967 -5.573,-7.114c-7.772,-2.558 -23.732,7.702 -24.975,11.447c-0.883,2.661 1.732,11.165 4.468,12.698c1.89,1.059 -1.882,5.087 -0.896,7.74c0.985,2.653 4.588,15.705 3.262,15.099c-6.605,-3.016 -23.675,-5.059 -26.263,-0.75c-1.519,2.53 2.209,10.926 4.679,13.652c1.519,1.677 3.213,2.162 4.383,-0.099c1.17,-2.26 -0.2,-7.565 -0.2,-7.565l5.55,0.045c0,0 17.629,5.791 19.436,3.39c1.807,-2.401 2.06,-5.794 2.734,-7.277c0.674,-1.484 3.642,5.969 4.972,7.113c-0.927,4.877 -3.266,8.195 -3.066,15.76c0.058,2.205 -5.072,10.596 -3.52,12.189c1.553,1.593 14.976,7.377 15.969,5.223c0.993,-2.155 -2.621,-4.787 -4.055,-5.981c-3.106,-2.586 -0.8,-8.167 -0.8,-8.167l-1.658,-1.77c0,0 7.268,-12.749 7.627,-16.566c0.36,-3.817 -10.704,-20.876 -10.461,-22.923c0.538,-4.524 7.465,-3.982 8.387,-5.854c0.946,5.198 2.635,9.831 4.472,10.294c1.837,0.463 11.473,9.351 12.319,10.766c0.846,1.415 1.515,2.936 1.515,2.936l2.578,1.701c0,0 2.485,-1.282 3.261,-0.185c0.776,1.097 10.336,7.666 10.227,9.291c-0.109,1.626 3.28,4.283 5.084,3.685c1.804,-0.598 8.761,3.408 9.536,5.106c0.775,1.698 4.531,17.823 4.531,17.823c0,0 -14.769,-4.019 -17.279,-4.2c-2.509,-0.181 -6.081,0.874 -5.065,6.39c1.016,5.516 2.387,16.359 1.738,17.571c-1.418,2.649 -5.941,1.51 -8.414,0.587c-1.545,-0.577 -2.336,2.117 -0.006,3.606c2.331,1.488 9.004,6.024 10.417,6.38c1.413,0.356 4.707,-3.174 4.816,-5.4c0.11,-2.227 0.562,-18.946 0.562,-18.946c0,0 13.136,8.117 15.752,7.873c-0.684,7.493 -2.959,15.336 -0.703,18.91c2.256,3.574 11.598,19.001 10.924,20.485c-0.674,1.484 -4.604,5.153 -4.641,6.496c-0.038,1.343 1.503,5.565 5.334,2.094c3.894,-3.528 7.741,-3.253 8.991,-7.656c0.552,-1.944 -3.366,-3.52 -8.493,-15.815c-0.612,-1.469 -2.096,-4.78 -1.792,-9.094c0.408,-5.806 2.817,-12.884 3.246,-14.587c0.747,-2.968 -0.569,-7.761 1.781,-8.269c2.718,-0.587 5.346,-1.535 5.945,-3.914c1.477,1.299 4.189,10.824 2.915,11.705c-1.274,0.882 -0.963,5.018 -0.963,5.018c0,0 3.246,3.823 4.416,1.563c1.17,-2.26 0.087,-9.897 0.087,-9.897c0,0 -1.49,-17.96 -3.643,-20.155c-2.153,-2.195 -3.67,-3.93 -3.67,-3.93c0,0 1.543,-8.005 -5.284,-11.25c-7.704,-3.661 -7.883,0.27 -9.897,-0.087c-2.014,-0.357 -3.712,0.418 -3.78,-1.102c-0.068,-1.52 3.576,-3.458 2.664,-7.596c-0.912,-4.137 -10.347,-6.062 -11.836,-3.731c-1.488,2.331 -0.539,5.125 0.06,6.327c0.599,1.203 2.008,3.962 0.207,3.358c-1.802,-0.604 -6.218,-2.167 -6.218,-2.167c0,0 -1.938,-3.644 -3.777,-3.506c-1.838,0.138 -11.95,-5.163 -12.761,-6.72c-0.81,-1.557 -0.726,-2.988 -2.281,-3.379c-1.555,-0.391 -3.992,-1.397 -3.992,-1.397c0,0 -8.827,-6.189 -7.34,-7.919c1.487,-1.73 3.148,-1.161 0.288,-2.933c-2.86,-1.772 -3.673,-2.127 -3.315,-4.742c0.358,-2.615 0.255,-4.595 -0.131,-6.045c-0.386,-1.45 -1.548,-4.598 -1.548,-4.598Z" style="fill:#302766;"/><path d="M190.624,4504.958l1.522,1.27c0,0 0.845,-2.016 2.258,-2.372c1.413,-0.356 8.102,4.122 8.425,7.197c0.323,3.075 -1.4,8.168 -6.172,8.317c-4.772,0.149 -5.558,-4.763 -6.69,-5.68c-1.133,-0.917 -4.805,1.21 -6.182,2.308c-1.377,1.098 -2.087,5.967 -5.573,7.114c-7.772,2.558 -23.732,-7.702 -24.975,-11.447c-0.883,-2.661 1.732,-11.165 4.468,-12.698c1.89,-1.059 -1.882,-5.087 -0.896,-7.74c0.985,-2.653 4.588,-15.705 3.262,-15.099c-6.605,3.016 -23.675,5.059 -26.263,0.75c-1.519,-2.53 2.209,-10.926 4.679,-13.652c1.519,-1.677 3.213,-2.162 4.383,0.099c1.17,2.26 -0.2,7.565 -0.2,7.565l5.55,-0.045c0,0 17.629,-5.791 19.436,-3.39c1.807,2.401 2.06,5.794 2.734,7.277c0.674,1.484 3.642,-5.969 4.972,-7.113c-0.927,-4.877 -3.266,-8.195 -3.066,-15.76c0.058,-2.205 -5.072,-10.596 -3.52,-12.189c1.553,-1.593 14.976,-7.377 15.969,-5.223c0.993,2.155 -2.621,4.787 -4.055,5.981c-3.106,2.586 -0.8,8.167 -0.8,8.167l-1.658,1.77c0,0 7.268,12.749 7.627,16.566c0.36,3.817 -10.704,20.876 -10.461,22.923c0.538,4.524 7.465,3.982 8.387,5.854c0.946,-5.198 2.635,-9.831 4.472,-10.294c1.837,-0.463 11.473,-9.351 12.319,-10.766c0.846,-1.415 1.515,-2.936 1.515,-2.936l2.578,-1.701c0,0 2.485,1.282 3.261,0.185c0.776,-1.097 10.336,-7.666 10.227,-9.291c-0.109,-1.626 3.28,-4.283 5.084,-3.685c1.804,0.598 8.761,-3.408 9.536,-5.106c0.775,-1.698 4.531,-17.823 4.531,-17.823c0,0 -14.769,4.019 -17.279,4.2c-2.509,0.181 -6.081,-0.874 -5.065,-6.39c1.016,-5.516 2.387,-16.359 1.738,-17.571c-1.418,-2.649 -5.941,-1.51 -8.414,-0.587c-1.545,0.577 -2.336,-2.117 -0.006,-3.606c2.331,-1.488 9.004,-6.024 10.417,-6.38c1.413,-0.356 4.707,3.174 4.816,5.4c0.11,2.227 0.562,18.946 0.562,18.946c0,0 13.136,-8.117 15.752,-7.873c-0.684,-7.493 -2.959,-15.336 -0.703,-18.91c2.256,-3.574 11.598,-19.001 10.924,-20.485c-0.674,-1.484 -4.604,-5.153 -4.641,-6.496c-0.038,-1.343 1.503,-5.565 5.334,-2.094c3.894,3.528 7.741,3.253 8.991,7.656c0.552,1.944 -3.366,3.52 -8.493,15.815c-0.612,1.469 -2.096,4.78 -1.792,9.094c0.408,5.806 2.817,12.884 3.246,14.587c0.747,2.968 -0.569,7.761 1.781,8.269c2.718,0.587 5.346,1.535 5.945,3.914c1.477,-1.299 4.189,-10.824 2.915,-11.705c-1.274,-0.882 -0.963,-5.018 -0.963,-5.018c0,0 3.246,-3.823 4.416,-1.563c1.17,2.26 0.087,9.897 0.087,9.897c0,0 -1.49,17.96 -3.643,20.155c-2.153,2.195 -3.67,3.93 -3.67,3.93c0,0 1.543,8.005 -5.284,11.25c-7.704,3.661 -7.883,-0.27 -9.897,0.087c-2.014,0.357 -3.712,-0.418 -3.78,1.102c-0.068,1.52 3.576,3.458 2.664,7.596c-0.912,4.137 -10.347,6.062 -11.836,3.731c-1.488,-2.331 -0.539,-5.125 0.06,-6.327c0.599,-1.203 2.008,-3.962 0.207,-3.358c-1.802,0.604 -6.218,2.167 -6.218,2.167c0,0 -1.938,3.644 -3.777,3.506c-1.838,-0.138 -11.95,5.163 -12.761,6.72c-0.81,1.557 -0.726,2.988 -2.281,3.379c-1.555,0.391 -3.992,1.397 -3.992,1.397c0,0 -8.827,6.189 -7.34,7.919c1.487,1.73 3.148,1.161 0.288,2.933c-2.86,1.772 -3.673,2.127 -3.315,4.742c0.358,2.615 0.255,4.595 -0.131,6.045c-0.386,1.45 -1.548,4.598 -1.548,4.598Z" style="fill:#48457d;"/><g id="Ebene11" serif:id="Ebene1" opacity="0.5"><path d="M2639.255,1384.776c59.722,-4.583 352.5,-92.5 410.833,-107.5c58.333,-15 62.653,-14.277 40,30c-18.333,35.833 -35,46.667 -81.667,45.833c-56.664,-1.012 -27.5,0.833 -61.667,0c-45.056,-1.099 -42.5,13.333 -15,41.667c27.5,28.333 -320.212,-7.873 -292.5,-10Z" style="fill:#fdecef;"/><path d="M743.6,1612.767c46.53,-11.632 60.417,-90.625 106.25,-90.625c45.833,0 361.145,91.42 408.333,100c7.414,1.348 3.768,5.553 -8.985,6.383c-73.161,4.76 -429.403,-1.858 -502.02,-10.409c-12.538,-1.476 -10.522,-3.613 -3.578,-5.349Z" style="fill:#f1edf2;"/><path d="M1276.422,1489.019c170.833,0 398.611,-61.111 650,-68.056c-254.167,-4.167 -386.111,-29.167 -452.778,-29.167c-66.667,0 -63.889,-63.889 -170.833,-63.889c-106.944,0 -200,76.389 -306.944,76.389c108.056,5 109.722,84.722 280.556,84.722Z" style="fill:#aa8dbd;"/><path d="M1629.408,1226.242c-210.417,15.278 -308.333,23.611 -431.944,23.611c-123.611,0 -445.827,-211.039 -588.889,-245.833c157.728,-37.501 117.361,-69.444 221.528,-76.389c96.62,-6.441 168.75,13.889 200.694,18.056c31.944,4.167 126.389,59.722 163.889,129.167c44.117,81.697 215.278,138.194 434.722,151.389Z" style="fill:#aa8dbd;"/><path d="M892.602,770.686c-152.778,26.389 -159.722,91.667 -291.667,94.444c-131.944,2.778 -136.806,-83.333 -254.167,-95.833c69.444,-38.194 77.778,-100 241.667,-111.111c163.889,-11.111 162.5,85.417 304.167,112.5Z" style="fill:#a68dbe;"/><path d="M2916.63,1038.325c89.167,-6.667 189.167,-14.167 189.167,-14.167c0,0 36.667,-51.667 145,-89.167c-113.333,33.333 -124.167,16.667 -124.167,16.667c0,0 -120,65.833 -210,86.667Z" style="fill:#f7eef1;"/><path d="M3097.602,748.95c-156.944,23.611 -155.556,87.5 -298.611,93.056c-143.056,5.556 -830.556,-344.444 -956.944,-341.667c-126.389,2.778 -115.278,-536.111 -329.167,-518.056c-213.889,18.056 2094.444,-61.111 1827.778,-26.389c-266.667,34.722 -496.528,378.472 -631.944,409.722c87.641,31.865 92.423,180.257 164.512,278.049c62.175,84.343 166.492,96.923 224.377,105.284Z" style="fill:url(#_Linear15);"/></g><path d="M2252.184,947.361c7.134,-6.242 18.726,12.484 43.693,6.242c24.968,-6.242 59.744,-4.458 76.686,-8.917c16.942,-4.458 52.61,15.159 88.278,-7.134c35.668,-22.292 59.744,-29.426 88.278,-69.552c28.534,-40.126 63.311,-82.036 68.661,-81.145c5.35,0.892 8.917,34.776 -5.35,49.935c-14.267,15.159 -82.928,66.877 -89.17,81.145c-0.892,26.751 3.567,66.877 -35.668,87.386c-39.235,20.509 -51.719,26.751 -80.253,24.968c14.267,-14.267 35.668,-33.885 27.643,-39.235c-8.025,-5.35 -69.552,-9.809 -101.654,-14.267c-32.101,-4.458 -88.278,-23.184 -81.145,-29.426Z" style="fill:#665095;"/></g></g><defs><linearGradient id="_Linear2" x1="0" y1="0" x2="1" y2="0.014" gradientUnits="userSpaceOnUse" gradientTransform="matrix(38.88889,-933.136535,-2350.150278,-15.440989,1592.905709,5266.666667)"><stop offset="0" style="stop-color:#6a76b2;stop-opacity:1"/><stop offset="0.5" style="stop-color:#b381b7;stop-opacity:1"/><stop offset="1" style="stop-color:#e387a0;stop-opacity:1"/></linearGradient><linearGradient id="_Linear8" x1="0" y1="0" x2="1" y2="0" gradientUnits="userSpaceOnUse" gradientTransform="matrix(8.333334,-794.444461,-794.444461,-8.333334,2297.602274,6043.134524)"><stop offset="0" style="stop-color:#977bb7;stop-opacity:1"/><stop offset="1" style="stop-color:#a58dc1;stop-opacity:1"/></linearGradient><linearGradient id="_Linear9" x1="0" y1="0" x2="1" y2="0.009" gradientUnits="userSpaceOnUse" gradientTransform="matrix(38.88889,1590.17372,-2350.150278,26.31325,1592.905709,-0)"><stop offset="0" style="stop-color:#adbbdd;stop-opacity:1"/><stop offset="0.5" style="stop-color:#f7b4b5;stop-opacity:1"/><stop offset="1" style="stop-color:#da809a;stop-opacity:1"/></linearGradient><linearGradient id="_Linear15" x1="0" y1="0" x2="1" y2="0" gradientUnits="userSpaceOnUse" gradientTransform="matrix(8.333334,794.444461,-794.444461,8.333334,2297.602274,-1.744501)"><stop offset="0" style="stop-color:#977bb7;stop-opacity:1"/><stop offset="1" style="stop-color:#a58dc1;stop-opacity:1"/></linearGradient></defs></svg>